<svg data-v-423bf9ae="" xmlns="http://www.w3.org/2000/svg" viewBox="0 0 344 90" class="iconLeft"><!----><!----><!----><g data-v-423bf9ae="" id="5298e255-3981-4e23-a849-62e1f9ee9a83" fill="black" transform="matrix(5.692599641096342,0,0,5.692599641096342,108.8614784309457,-1.6793180436900457)"><path d="M4.13 13.43L4.13 4.70L6.78 4.70L6.78 3.63L0.20 3.63L0.20 4.70L2.86 4.70L2.86 13.43ZM9.51 13.43L11.12 8.22L12.73 13.43L14.10 13.43L16.10 6.75L14.81 6.75L13.33 12.21L11.73 6.75L10.51 6.75L8.90 12.24L7.43 6.75L6.13 6.75L8.15 13.43ZM17.21 3.72L17.21 5.10L18.48 5.10L18.48 3.72ZM17.21 6.75L17.21 11.56C17.21 12.85 17.68 13.47 19.03 13.47C19.18 13.47 19.32 13.45 19.47 13.44L19.47 12.43C19.33 12.46 19.24 12.46 19.11 12.46C18.63 12.46 18.48 12.14 18.48 11.54L18.48 6.75ZM20.59 2.93L20.59 11.56C20.59 12.85 21.07 13.47 22.41 13.47C22.57 13.47 22.71 13.45 22.86 13.44L22.86 12.43C22.72 12.46 22.62 12.46 22.50 12.46C22.02 12.46 21.87 12.14 21.87 11.54L21.87 2.93ZM23.98 3.72L23.98 5.10L25.26 5.10L25.26 3.72ZM23.98 6.75L23.98 11.56C23.98 12.85 24.46 13.47 25.80 13.47C25.96 13.47 26.10 13.45 26.25 13.44L26.25 12.43C26.11 12.46 26.01 12.46 25.89 12.46C25.41 12.46 25.26 12.14 25.26 11.54L25.26 6.75ZM28.67 13.43L28.67 12.82C28.70 10.15 29.43 7.66 31.01 7.66C31.68 7.66 31.98 8.13 31.98 9.31L31.98 13.43L33.22 13.43L33.22 8.90C33.22 7.46 32.72 6.61 31.42 6.61C30.03 6.61 29.15 7.41 28.64 8.85L28.62 6.75L27.40 6.75L27.40 13.43ZM38.47 9.90L41.06 6.75L39.66 6.75L37.44 9.42L36.32 9.42L36.32 2.93L35.04 2.93L35.04 13.43L36.32 13.43L36.32 10.49L37.48 10.49L39.79 13.43L41.20 13.43Z"></path></g><!----><g data-v-423bf9ae="" id="6a5f7cab-998c-46fb-91b5-39bd3c5b2903" transform="matrix(2.8125,0,0,2.8125,0,0)" stroke="none" fill="black"><path d="M4.029 14.362L14.362 4.028l.707.707L4.736 15.07zM17.135 27.47L27.47 17.135l.707.707-10.333 10.333zM4.029 17.841l.707-.707 10.333 10.334-.707.707zM17.135 4.735l.708-.707L28.176 14.36l-.707.707z"></path><g><path d="M16 1.414l1.683 1.683L16 4.779l-1.683-1.683L16 1.414M16 0l-3.097 3.097L16 6.194l3.097-3.097L16 0zM16 27.221l1.683 1.683L16 30.586l-1.683-1.683L16 27.221m0-1.415l-3.097 3.097L16 32l3.097-3.097L16 25.806zM3.097 14.317L4.779 16l-1.683 1.683L1.414 16l1.683-1.683m0-1.414L0 16l3.097 3.097L6.194 16l-3.097-3.097zM28.903 14.317L30.586 16l-1.683 1.683L27.221 16l1.682-1.683m0-1.414L25.806 16l3.097 3.097L32 16l-3.097-3.097z"></path></g></g><!----></svg>